<svg width="128" height="128" viewBox="0 0 128 128" fill="none" xmlns="http://www.w3.org/2000/svg">
<rect width="128" height="128" rx="20" fill="#FBBF24"/>
<path d="M78.6667 56.4167C78.6667 60.1739 77.1741 63.7772 74.5173 66.434C71.8606 69.0908 68.2572 70.5833 64.5 70.5833C60.7428 70.5833 57.1394 69.0908 54.4827 66.434C51.8259 63.7772 50.3333 60.1739 50.3333 56.4167" stroke="black" stroke-width="7.08333" stroke-linecap="round" stroke-linejoin="round"/>
<path d="M32.9898 42.3704H96.0102" stroke="black" stroke-width="7.08333" stroke-linecap="round" stroke-linejoin="round"/>
<path d="M34.0417 40.3623C33.1221 41.5884 32.625 43.0797 32.625 44.6123V91.8333C32.625 93.712 33.3713 95.5136 34.6997 96.842C36.028 98.1704 37.8297 98.9167 39.7083 98.9167H89.2917C91.1703 98.9167 92.972 98.1704 94.3003 96.842C95.6287 95.5136 96.375 93.712 96.375 91.8333V44.6123C96.375 43.0797 95.8779 41.5884 94.9583 40.3623L87.875 30.9167C87.2152 30.037 86.3597 29.3229 85.3761 28.8312C84.3925 28.3394 83.308 28.0833 82.2083 28.0833H46.7917C45.692 28.0833 44.6075 28.3394 43.6239 28.8312C42.6403 29.3229 41.7848 30.037 41.125 30.9167L34.0417 40.3623Z" stroke="black" stroke-width="7.08333" stroke-linecap="round" stroke-linejoin="round"/>
</svg>
