<svg width="36" height="34" viewBox="0 0 36 34" fill="none" xmlns="http://www.w3.org/2000/svg">
<path d="M21.8333 15.2708C21.8333 16.2543 21.4426 17.1976 20.7472 17.893C20.0517 18.5884 19.1085 18.9791 18.125 18.9791C17.1415 18.9791 16.1983 18.5884 15.5028 17.893C14.8074 17.1976 14.4167 16.2543 14.4167 15.2708" stroke="#FBBF24" stroke-width="1.85417" stroke-linecap="round" stroke-linejoin="round"/>
<path d="M9.87673 11.594H26.3733" stroke="#FBBF24" stroke-width="1.85417" stroke-linecap="round" stroke-linejoin="round"/>
<path d="M10.1521 11.0684C9.91137 11.3893 9.78125 11.7797 9.78125 12.1809V24.5417C9.78125 25.0334 9.9766 25.5051 10.3243 25.8528C10.672 26.2005 11.1437 26.3959 11.6354 26.3959H24.6146C25.1063 26.3959 25.578 26.2005 25.9257 25.8528C26.2734 25.5051 26.4687 25.0334 26.4687 24.5417V12.1809C26.4687 11.7797 26.3386 11.3893 26.0979 11.0684L24.2438 8.59585C24.071 8.36557 23.8471 8.17867 23.5896 8.04994C23.3322 7.92121 23.0483 7.85419 22.7604 7.85419H13.4896C13.2017 7.85419 12.9178 7.92121 12.6604 8.04994C12.4029 8.17867 12.179 8.36557 12.0063 8.59585L10.1521 11.0684Z" stroke="#FBBF24" stroke-width="1.85417" stroke-linecap="round" stroke-linejoin="round"/>
</svg>
